<?xml version="1.0" encoding="UTF-8" standalone="no"?>
<!-- Created with Inkscape (http://www.inkscape.org/) -->

<svg
   width="1000"
   height="1000"
   viewBox="0 0 264.58333 264.58333"
   version="1.1"
   id="svg1"
   inkscape:version="1.3.2 (1:1.3.2+202311252150+091e20ef0f)"
   sodipodi:docname="drawing.svg"
   xmlns:inkscape="http://www.inkscape.org/namespaces/inkscape"
   xmlns:sodipodi="http://sodipodi.sourceforge.net/DTD/sodipodi-0.dtd"
   xmlns="http://www.w3.org/2000/svg"
   xmlns:svg="http://www.w3.org/2000/svg">
  <sodipodi:namedview
     id="namedview1"
     pagecolor="#ffffff"
     bordercolor="#000000"
     borderopacity="0.25"
     inkscape:showpageshadow="2"
     inkscape:pageopacity="0.0"
     inkscape:pagecheckerboard="0"
     inkscape:deskcolor="#d1d1d1"
     inkscape:document-units="mm"
     inkscape:zoom="4.7415953"
     inkscape:cx="331.53399"
     inkscape:cy="138.98276"
     inkscape:window-width="1920"
     inkscape:window-height="1016"
     inkscape:window-x="0"
     inkscape:window-y="27"
     inkscape:window-maximized="1"
     inkscape:current-layer="layer1" />
  <defs
     id="defs1" />
  <g
     inkscape:label="Layer 1"
     inkscape:groupmode="layer"
     id="layer1">
    <text
       style="font-size:13.2536px;font-family:Ubuntu;-inkscape-font-specification:Ubuntu;fill:#0044aa;stroke-width:0.521793;paint-order:markers stroke fill"
       x="39.015404"
       y="39.83371"
       id="text15"
       transform="scale(0.95823328,1.0435872)">G</text>
    <text
       style="font-size:13.3932px;font-family:Ubuntu;-inkscape-font-specification:Ubuntu;fill:#0044aa;stroke-width:0.527292;paint-order:markers stroke fill"
       x="47.723785"
       y="39.401047"
       id="text14"
       transform="scale(0.94824094,1.0545843)">U</text>
    <text
       style="font-size:13.5374px;font-family:Ubuntu;-inkscape-font-specification:Ubuntu;fill:#0044aa;stroke-width:0.532968;paint-order:markers stroke fill"
       x="56.569874"
       y="39.180187"
       id="text13"
       transform="scale(0.93814227,1.0659364)">E</text>
    <text
       style="font-size:13.2444px;font-family:Ubuntu;-inkscape-font-specification:Ubuntu;fill:#0044aa;stroke-width:0.521433;paint-order:markers stroke fill"
       x="63.232689"
       y="39.848259"
       id="text12"
       transform="scale(0.95889569,1.0428663)">S</text>
    <text
       style="font-size:13.2444px;font-family:Ubuntu;-inkscape-font-specification:Ubuntu;fill:#0044aa;stroke-width:0.521433;paint-order:markers stroke fill"
       x="70.014771"
       y="39.848259"
       id="text11"
       transform="scale(0.95889569,1.0428663)">S</text>
    <text
       style="font-size:13.5374px;font-family:Ubuntu;-inkscape-font-specification:Ubuntu;fill:#80b3ff;stroke-width:0.532968;paint-order:markers stroke fill"
       x="89.417526"
       y="39.180187"
       id="text9"
       transform="scale(0.93814227,1.0659364)"
       inkscape:transform-center-x="-0.37576157"
       inkscape:transform-center-y="2.257454">M</text>
    <text
       style="font-size:13.5374px;font-family:Ubuntu;-inkscape-font-specification:Ubuntu;fill:#80b3ff;stroke-width:0.532968;paint-order:markers stroke fill"
       x="100.68753"
       y="39.180187"
       id="text8"
       transform="scale(0.93814227,1.0659364)">M</text>
    <text
       style="font-size:13.5374px;font-family:Ubuntu;-inkscape-font-specification:Ubuntu;fill:#80b3ff;stroke-width:0.532968;paint-order:markers stroke fill"
       x="111.70032"
       y="39.180187"
       id="text7"
       transform="scale(0.93814227,1.0659364)">E</text>
    <text
       style="font-size:13.5374px;font-family:Ubuntu;-inkscape-font-specification:Ubuntu;fill:#80b3ff;stroke-width:0.532968;paint-order:markers stroke fill"
       x="119.42805"
       y="39.180187"
       id="text6"
       transform="scale(0.93814227,1.0659364)">T</text>
    <text
       style="font-size:13.4695px;font-family:Ubuntu;-inkscape-font-specification:Ubuntu;fill:#80b3ff;stroke-width:0.530296;paint-order:markers stroke fill"
       x="126.33875"
       y="39.377571"
       id="text5"
       transform="scale(0.94286848,1.0605933)">R</text>
    <path
       id="path17"
       style="fill:#ff0066;stroke:none;stroke-width:0.143503;paint-order:markers stroke fill"
       inkscape:transform-center-y="1.2322353"
       d="m 74.91365,31.764967 a 1.1608313,1.2431107 0 0 0 -1.16078,1.243209 1.1608313,1.2431107 0 0 0 1.16078,1.243056 1.1608313,1.2431107 0 0 0 0.811358,-0.358381 c 0.988905,0.727576 2.547428,1.668096 2.690473,1.93342 0.144008,0.267111 0.123875,2.206971 0.220003,3.487737 a 1.1608313,1.2431107 0 0 0 -0.88689,1.205146 1.1608313,1.2431107 0 0 0 1.160923,1.243056 1.1608313,1.2431107 0 0 0 1.160782,-1.243056 1.1608313,1.2431107 0 0 0 -0.886747,-1.207908 c 0.09589,-1.280799 0.07594,-3.218055 0.219862,-3.484975 0.143043,-0.265324 1.701567,-1.205844 2.690473,-1.93342 a 1.1608313,1.2431107 0 0 0 0.811357,0.358381 1.1608313,1.2431107 0 0 0 1.160923,-1.243056 1.1608313,1.2431107 0 0 0 -1.160923,-1.243209 1.1608313,1.2431107 0 0 0 -1.160779,1.243209 1.1608313,1.2431107 0 0 0 0.05788,0.38125 c -1.081995,0.55472 -2.608149,1.520552 -2.892849,1.520553 -0.284699,0 -1.810854,-0.965833 -2.892847,-1.520553 a 1.1608313,1.2431107 0 0 0 0.05788,-0.38125 1.1608313,1.2431107 0 0 0 -1.160922,-1.243209 z" />
    <path
       id="path33"
       style="fill:#c83771;stroke:none;stroke-width:0.143503;paint-order:markers stroke fill"
       inkscape:transform-center-y="1.2322353"
       d="m 128.18321,31.764967 a 1.1608313,1.2431107 0 0 0 -1.16078,1.243209 1.1608313,1.2431107 0 0 0 1.16078,1.243056 1.1608313,1.2431107 0 0 0 0.81136,-0.358381 c 0.98891,0.727576 2.54743,1.668096 2.69048,1.93342 0.144,0.267111 0.12387,2.206971 0.22,3.487737 a 1.1608313,1.2431107 0 0 0 -0.88689,1.205146 1.1608313,1.2431107 0 0 0 1.16092,1.243056 1.1608313,1.2431107 0 0 0 1.16078,-1.243056 1.1608313,1.2431107 0 0 0 -0.88674,-1.207908 c 0.0959,-1.280799 0.0759,-3.218055 0.21986,-3.484975 0.14304,-0.265324 1.70157,-1.205844 2.69047,-1.93342 a 1.1608313,1.2431107 0 0 0 0.81136,0.358381 1.1608313,1.2431107 0 0 0 1.16092,-1.243056 1.1608313,1.2431107 0 0 0 -1.16092,-1.243209 1.1608313,1.2431107 0 0 0 -1.16078,1.243209 1.1608313,1.2431107 0 0 0 0.0579,0.38125 c -1.082,0.55472 -2.60815,1.520552 -2.89285,1.520553 -0.2847,0 -1.81085,-0.965833 -2.89285,-1.520553 a 1.1608313,1.2431107 0 0 0 0.0579,-0.38125 1.1608313,1.2431107 0 0 0 -1.16092,-1.243209 z" />
  </g>
</svg>
